<?xml version="1.0" encoding="UTF-8" standalone="no"?>
<!-- Created with Inkscape (http://www.inkscape.org/) -->

<svg
   xmlns:dc="http://purl.org/dc/elements/1.1/"
   xmlns:cc="http://creativecommons.org/ns#"
   xmlns:rdf="http://www.w3.org/1999/02/22-rdf-syntax-ns#"
   xmlns:svg="http://www.w3.org/2000/svg"
   xmlns="http://www.w3.org/2000/svg"
   xmlns:sodipodi="http://sodipodi.sourceforge.net/DTD/sodipodi-0.dtd"
   xmlns:inkscape="http://www.inkscape.org/namespaces/inkscape"
   width="134.78413"
   height="77.966423"
   viewBox="0 0 134.78414 77.966424"
   id="svg2"
   version="1.1"
   inkscape:version="0.91 r13725"
   sodipodi:docname="caja.svg">
  <defs
     id="defs4" />
  <sodipodi:namedview
     id="base"
     pagecolor="#ffffff"
     bordercolor="#666666"
     borderopacity="1.0"
     inkscape:pageopacity="0.0"
     inkscape:pageshadow="2"
     inkscape:zoom="2.8"
     inkscape:cx="55.017761"
     inkscape:cy="11.398794"
     inkscape:document-units="px"
     inkscape:current-layer="layer1"
     showgrid="false"
     units="px"
     fit-margin-top="0"
     fit-margin-left="0"
     fit-margin-right="0"
     fit-margin-bottom="0"
     inkscape:window-width="1781"
     inkscape:window-height="1058"
     inkscape:window-x="131"
     inkscape:window-y="-8"
     inkscape:window-maximized="1" />
  <metadata
     id="metadata7">
    <rdf:RDF>
      <cc:Work
         rdf:about="">
        <dc:format>image/svg+xml</dc:format>
        <dc:type
           rdf:resource="http://purl.org/dc/dcmitype/StillImage" />
        <dc:title></dc:title>
      </cc:Work>
    </rdf:RDF>
  </metadata>
  <g
     inkscape:label="Capa 1"
     inkscape:groupmode="layer"
     id="layer1"
     transform="translate(-43.571447,-326.84187)">
    <path
       inkscape:connector-curvature="0"
       id="path3369"
       d="m 110.9744,404.56559 c -0.31119,-0.32419 -14.654943,-0.97322 -31.875003,-1.44229 -17.22006,-0.46908 -31.98306,-1.11379 -32.80666,-1.4327 -1.75248,-0.67858 -2.72129,-15.50988 -2.72129,-41.65978 l 0,-15.56172 4.0824,-2.46586 c 2.24531,-1.35622 5.81546,-2.75866 7.93366,-3.11652 2.11819,-0.35787 5.66002,-1.97094 7.87073,-3.58461 2.43242,-1.7755 5.31502,-3.00212 7.30071,-3.10664 1.80469,-0.095 6.23437,-1.33841 9.84375,-2.76315 l 6.5625,-2.59045 24.375003,0.22519 c 34.02299,0.31431 65.813,1.34862 66.62946,2.16783 0.37803,0.37931 0.16097,10.29337 -0.48235,22.03125 -0.99961,18.23874 -1.50747,22.34967 -3.49306,28.27509 -3.35974,10.02616 -10.31347,22.50869 -12.81942,23.01191 -1.11217,0.22333 -10.03776,0.63414 -19.83463,0.91289 -9.79688,0.27877 -20.55469,0.77282 -23.90625,1.09792 -3.35156,0.32508 -6.34836,0.32583 -6.65955,0.002 z"
       style="fill:#ac8c67" />
    <path
       inkscape:connector-curvature="0"
       id="path3367"
       d="m 93.258947,402.15717 c -7.99219,-0.38913 -20.91211,-0.76335 -28.71094,-0.83159 -7.79883,-0.0682 -15.49804,-0.38775 -17.10937,-0.71002 l -2.92969,-0.58594 0,-27.38576 0,-27.38576 4.93533,-2.49705 c 2.71443,-1.37338 5.78929,-2.49705 6.83302,-2.49705 1.04373,0 3.56893,-0.88543 5.61155,-1.96762 2.04262,-1.08219 6.03416,-2.74067 8.8701,-3.68549 2.83594,-0.94483 8.10937,-2.84339 11.71875,-4.21902 l 6.5625,-2.50114 28.125003,0.65402 c 46.79648,1.08822 44.42187,0.95363 42.94161,2.4339 -1.34684,1.34683 -41.45867,1.34262 -50.44161,-0.005 -13.438333,-2.01646 -19.726923,-1.13077 -30.937503,4.35725 -3.09375,1.51451 -6.99609,3.29527 -8.67187,3.95726 -1.67579,0.66194 -3.04688,1.57426 -3.04688,2.02733 0,0.45307 7.27734,0.82793 16.17187,0.83303 18.027763,0.0103 37.986443,1.23249 53.954273,3.30385 5.82719,0.75591 13.54214,1.37438 17.14435,1.37438 6.54708,0 6.55097,-0.002 10.72361,-4.29489 2.29579,-2.36219 5.05221,-5.52799 6.12537,-7.03512 2.11402,-2.96886 2.22254,-2.84107 -3.80697,-4.48258 -2.92359,-0.79594 -2.54039,-0.90252 3.51562,-0.97786 l 6.79688,-0.0846 -0.16898,6.32812 c -0.14027,5.25283 -0.22865,5.57144 -0.52012,1.875 -0.24414,-3.09632 -0.76395,-4.45312 -1.70602,-4.45312 -0.74519,0 -1.35488,0.55816 -1.35488,1.24035 0,0.68219 -1.99642,4.36077 -4.43648,8.17462 l -4.43649,6.93427 -0.18186,19.48163 c -0.10003,10.7149 0.14482,19.48163 0.5441,19.48163 0.39928,0 1.48802,-1.68993 2.41941,-3.75539 0.93139,-2.06547 2.28762,-4.24852 3.01384,-4.85122 1.10363,-0.91593 1.21155,-0.64572 0.65743,1.64602 -0.95311,3.9419 -8.27834,17.07231 -8.59032,15.39809 -0.14414,-0.77344 -0.81043,-11.43075 -1.48065,-23.68293 -0.67021,-12.25217 -1.61439,-22.65572 -2.09816,-23.11901 -0.48376,-0.46328 -11.63738,-1.31807 -24.78582,-1.89953 -13.14844,-0.58145 -26.85938,-1.45326 -30.46875,-1.93734 -7.315033,-0.98108 -55.038253,-0.1207 -55.781253,1.00566 -0.75436,1.14357 -0.40828,36.46412 0.41493,42.34772 0.41331,2.95395 1.29498,5.82189 1.95927,6.3732 0.79924,0.66331 16.69641,1.197 46.99493,1.57766 25.182923,0.31639 47.052743,0.54851 48.599623,0.51582 5.13552,-0.10854 12.65625,0.8179 12.65625,1.55906 0,0.72087 -15.1463,1.62283 -38.90625,2.31687 -6.70313,0.1958 -18.72656,0.0376 -26.718753,-0.35151 z m -21.29542,-28.3323 c -2.02698,-2.53007 -2.31175,-5.50603 -0.75433,-7.88296 1.97629,-3.0162 5.08613,-2.65886 7.01842,0.80646 1.29177,2.31664 1.29177,2.83962 0,5.15625 -1.58586,2.84405 -4.7475,3.81325 -6.26409,1.92025 z m 27.53447,-1.52531 c -2.01158,-2.22278 -1.96153,-4.13403 0.17743,-6.77554 2.066013,-2.55142 4.367813,-1.99537 5.929613,1.43242 2.30515,5.05923 -2.5331,9.29227 -6.107043,5.34312 z m 30.546983,0.57753 c -2.08999,-2.51829 -2.26816,-5.94589 -0.42724,-8.21933 2.1012,-2.59486 4.40679,-2.10767 5.9389,1.25494 1.9423,4.26287 -2.79053,10.24315 -5.51166,6.96439 z"
       style="fill:#67543f" />
  </g>
</svg>
